<svg width="24" height="24" viewBox="0 0 24 24" xmlns="http://www.w3.org/2000/svg">
  <path fill-rule="evenodd" clip-rule="evenodd" d="M2 4H21C21.1546 4.00053 21.3071 4.0368 21.4454 4.106C21.5837 4.1752 21.7041 4.27544 21.7973 4.39889C21.8904 4.52234 21.9537 4.66565 21.9823 4.81763C22.0109 4.96962 22.0039 5.12615 21.962 5.275L20.169 11.549C19.926 12.402 19.136 13 18.246 13H8.973L9.461 14.342C9.604 14.735 9.982 15 10.401 15H19V17H10.401C9.78556 16.9985 9.18539 16.8083 8.68134 16.4552C8.1773 16.1021 7.79362 15.6029 7.582 15.025L4.3 6H2V4ZM8.24601 11H18.246L19.675 6H6.42801L8.24601 11Z" fill="white"/>
  <path d="M10.5 21C11.3284 21 12 20.3284 12 19.5C12 18.6716 11.3284 18 10.5 18C9.67157 18 9 18.6716 9 19.5C9 20.3284 9.67157 21 10.5 21Z" fill="white"/>
  <path d="M16.5 21C17.3284 21 18 20.3284 18 19.5C18 18.6716 17.3284 18 16.5 18C15.6716 18 15 18.6716 15 19.5C15 20.3284 15.6716 21 16.5 21Z" fill="white"/>
</svg>
