<svg width="24" height="24" viewBox="0 0 24 24" fill="none" xmlns="http://www.w3.org/2000/svg">
  <path d="M17.6181 6.968L19.0711 5.515L20.4851 6.929L19.0321 8.382C20.4678 10.1792 21.161 12.4579 20.9691 14.7501C20.7773 17.0424 19.7151 19.1742 18.0005 20.7077C16.286 22.2412 14.0494 23.0601 11.75 22.9961C9.45067 22.9321 7.26307 21.9901 5.63653 20.3635C4.00999 18.737 3.06799 16.5494 3.00398 14.25C2.93997 11.9506 3.75881 9.71402 5.29234 7.99951C6.82587 6.285 8.95767 5.22275 11.2499 5.03092C13.5422 4.83909 15.8209 5.53223 17.6181 6.968ZM12.0001 21C12.9193 21 13.8296 20.8189 14.6788 20.4672C15.5281 20.1154 16.2998 19.5998 16.9498 18.9497C17.5998 18.2997 18.1154 17.5281 18.4672 16.6788C18.819 15.8295 19.0001 14.9193 19.0001 14C19.0001 13.0807 18.819 12.1705 18.4672 11.3212C18.1154 10.4719 17.5998 9.70026 16.9498 9.05025C16.2998 8.40024 15.5281 7.88463 14.6788 7.53284C13.8296 7.18106 12.9193 7 12.0001 7C10.1435 7 8.36307 7.7375 7.05031 9.05025C5.73756 10.363 5.00006 12.1435 5.00006 14C5.00006 15.8565 5.73756 17.637 7.05031 18.9497C8.36307 20.2625 10.1435 21 12.0001 21ZM11.0001 9H13.0001V14H11.0001V9ZM8.00006 2H16.0001V4H8.00006V2Z" fill="#23BE20"/>
</svg>
