<svg width="137" height="14" viewBox="0 0 137 14" fill="none" xmlns="http://www.w3.org/2000/svg">
<path d="M7.372 11H5.86V6.646H1.814V11H0.302V1.032H1.814V5.288H5.86V1.032H7.372V11ZM15.0357 11H13.6357V10.356C13.3744 10.6173 13.099 10.804 12.8097 10.916C12.5297 11.028 12.175 11.084 11.7457 11.084C10.9057 11.084 10.271 10.8693 9.84169 10.44C9.46835 10.048 9.28169 9.53933 9.28169 8.914C9.28169 8.298 9.49169 7.80333 9.91169 7.43C10.341 7.05667 10.9524 6.87 11.7457 6.87H13.6077V6.366C13.6077 5.90867 13.4864 5.57267 13.2437 5.358C13.001 5.14333 12.6044 5.036 12.0537 5.036C11.6804 5.036 11.377 5.092 11.1437 5.204C10.9197 5.30667 10.705 5.484 10.4997 5.736L9.57569 4.854C9.90235 4.47133 10.2524 4.20533 10.6257 4.056C11.0084 3.89733 11.503 3.818 12.1097 3.818C14.0604 3.818 15.0357 4.63 15.0357 6.254V11ZM13.6077 8.438V7.864H11.9697C11.1017 7.864 10.6677 8.20467 10.6677 8.886C10.6677 9.558 11.1157 9.894 12.0117 9.894C12.581 9.894 13.0104 9.75867 13.2997 9.488C13.505 9.292 13.6077 8.942 13.6077 8.438ZM23.0475 7.444C23.0475 8.90933 22.7815 9.91267 22.2495 10.454C21.8295 10.874 21.2555 11.084 20.5275 11.084C19.7342 11.084 19.1135 10.8133 18.6655 10.272V13.87H17.2375V3.902H18.6375V4.658C19.1042 4.098 19.7295 3.818 20.5135 3.818C21.2508 3.818 21.8295 4.028 22.2495 4.448C22.7815 4.98933 23.0475 5.988 23.0475 7.444ZM21.5635 8.354C21.6008 8.102 21.6195 7.79867 21.6195 7.444C21.6195 7.08933 21.6008 6.786 21.5635 6.534C21.5355 6.282 21.4702 6.03933 21.3675 5.806C21.2742 5.57267 21.1248 5.39533 20.9195 5.274C20.7142 5.15267 20.4575 5.092 20.1495 5.092C19.8322 5.092 19.5708 5.15267 19.3655 5.274C19.1602 5.39533 19.0062 5.57267 18.9035 5.806C18.8102 6.03933 18.7448 6.282 18.7075 6.534C18.6795 6.786 18.6655 7.08933 18.6655 7.444C18.6655 7.79867 18.6795 8.102 18.7075 8.354C18.7448 8.606 18.8102 8.85333 18.9035 9.096C19.0062 9.32933 19.1602 9.50667 19.3655 9.628C19.5802 9.74933 19.8415 9.81 20.1495 9.81C20.4575 9.81 20.7142 9.74933 20.9195 9.628C21.1248 9.50667 21.2742 9.32933 21.3675 9.096C21.4702 8.85333 21.5355 8.606 21.5635 8.354ZM30.7858 7.444C30.7858 8.90933 30.5198 9.91267 29.9878 10.454C29.5678 10.874 28.9938 11.084 28.2658 11.084C27.4725 11.084 26.8518 10.8133 26.4038 10.272V13.87H24.9758V3.902H26.3758V4.658C26.8425 4.098 27.4678 3.818 28.2518 3.818C28.9891 3.818 29.5678 4.028 29.9878 4.448C30.5198 4.98933 30.7858 5.988 30.7858 7.444ZM29.3018 8.354C29.3391 8.102 29.3578 7.79867 29.3578 7.444C29.3578 7.08933 29.3391 6.786 29.3018 6.534C29.2738 6.282 29.2085 6.03933 29.1058 5.806C29.0125 5.57267 28.8631 5.39533 28.6578 5.274C28.4525 5.15267 28.1958 5.092 27.8878 5.092C27.5705 5.092 27.3091 5.15267 27.1038 5.274C26.8985 5.39533 26.7445 5.57267 26.6418 5.806C26.5485 6.03933 26.4831 6.282 26.4458 6.534C26.4178 6.786 26.4038 7.08933 26.4038 7.444C26.4038 7.79867 26.4178 8.102 26.4458 8.354C26.4831 8.606 26.5485 8.85333 26.6418 9.096C26.7445 9.32933 26.8985 9.50667 27.1038 9.628C27.3185 9.74933 27.5798 9.81 27.8878 9.81C28.1958 9.81 28.4525 9.74933 28.6578 9.628C28.8631 9.50667 29.0125 9.32933 29.1058 9.096C29.2085 8.85333 29.2738 8.606 29.3018 8.354ZM38.0761 3.902L34.9401 12.414C34.8094 12.7873 34.6367 13.0813 34.4221 13.296C34.0767 13.6413 33.5914 13.814 32.9661 13.814H32.3921V12.526H32.7561C33.0547 12.526 33.2741 12.47 33.4141 12.358C33.5541 12.2553 33.6754 12.0593 33.7781 11.77L34.1701 10.664L31.6921 3.902H33.2041L34.8981 8.9L36.5501 3.902H38.0761ZM49.3182 1.032L46.0142 11H44.8382L41.5622 1.032H43.1302L45.4262 8.284L47.7222 1.032H49.3182ZM55.19 11H53.79V10.356C53.5287 10.6173 53.2533 10.804 52.964 10.916C52.684 11.028 52.3293 11.084 51.9 11.084C51.06 11.084 50.4253 10.8693 49.996 10.44C49.6227 10.048 49.436 9.53933 49.436 8.914C49.436 8.298 49.646 7.80333 50.066 7.43C50.4953 7.05667 51.1067 6.87 51.9 6.87H53.762V6.366C53.762 5.90867 53.6407 5.57267 53.398 5.358C53.1553 5.14333 52.7587 5.036 52.208 5.036C51.8347 5.036 51.5313 5.092 51.298 5.204C51.074 5.30667 50.8593 5.484 50.654 5.736L49.73 4.854C50.0567 4.47133 50.4067 4.20533 50.78 4.056C51.1627 3.89733 51.6573 3.818 52.264 3.818C54.2147 3.818 55.19 4.63 55.19 6.254V11ZM53.762 8.438V7.864H52.124C51.256 7.864 50.822 8.20467 50.822 8.886C50.822 9.558 51.27 9.894 52.166 9.894C52.7353 9.894 53.1647 9.75867 53.454 9.488C53.6593 9.292 53.762 8.942 53.762 8.438ZM60.1778 11H59.2958C58.6518 11 58.1665 10.818 57.8398 10.454C57.5131 10.0807 57.3498 9.60933 57.3498 9.04V1.032H58.7778V8.956C58.7778 9.236 58.8338 9.446 58.9458 9.586C59.0671 9.71667 59.2678 9.782 59.5478 9.782H60.1778V11ZM67.2588 7.864H62.6528C62.6528 8.48933 62.8068 8.97933 63.1148 9.334C63.4321 9.67933 63.8801 9.852 64.4588 9.852C64.8414 9.852 65.1588 9.796 65.4108 9.684C65.6628 9.572 65.9194 9.38533 66.1808 9.124L67.0908 9.978C66.7081 10.3607 66.3161 10.6407 65.9148 10.818C65.5228 10.9953 65.0281 11.084 64.4308 11.084C63.4601 11.084 62.6854 10.7947 62.1068 10.216C61.5281 9.63733 61.2388 8.71333 61.2388 7.444C61.2388 6.30533 61.5094 5.41867 62.0508 4.784C62.5921 4.14 63.3248 3.818 64.2488 3.818C65.1914 3.818 65.9288 4.13067 66.4608 4.756C66.9928 5.38133 67.2588 6.21667 67.2588 7.262V7.864ZM65.8448 6.87C65.8168 6.45 65.7514 6.128 65.6488 5.904C65.3781 5.30667 64.9114 5.008 64.2488 5.008C63.5768 5.008 63.1054 5.30667 62.8348 5.904C62.7228 6.14667 62.6621 6.46867 62.6528 6.87H65.8448ZM74.9036 11H73.4756V6.674C73.4756 6.142 73.345 5.74533 73.0836 5.484C72.8223 5.22267 72.477 5.092 72.0476 5.092C71.6183 5.092 71.2636 5.22733 70.9836 5.498C70.713 5.75933 70.5776 6.15133 70.5776 6.674V11H69.1496V3.902H70.5496V4.616C71.0443 4.084 71.6743 3.818 72.4396 3.818C73.1583 3.818 73.7416 4.03267 74.1896 4.462C74.6656 4.92867 74.9036 5.596 74.9036 6.464V11ZM80.0747 11H79.2207C78.5953 11 78.1147 10.8087 77.7787 10.426C77.4427 10.0433 77.2747 9.57667 77.2747 9.026V4.994H76.4627V3.902H77.2747V1.872H78.7027V3.902H80.0747V4.994H78.7027V8.956C78.7027 9.50667 78.964 9.782 79.4867 9.782H80.0747V11ZM83.3198 11H81.8918V3.902H83.3198V11ZM83.3618 2.502H81.8498V0.99H83.3618V2.502ZM91.3372 11H89.9092V6.674C89.9092 6.142 89.7786 5.74533 89.5172 5.484C89.2559 5.22267 88.9106 5.092 88.4812 5.092C88.0519 5.092 87.6972 5.22733 87.4172 5.498C87.1466 5.75933 87.0112 6.15133 87.0112 6.674V11H85.5832V3.902H86.9832V4.616C87.4779 4.084 88.1079 3.818 88.8732 3.818C89.5919 3.818 90.1752 4.03267 90.6232 4.462C91.0992 4.92867 91.3372 5.596 91.3372 6.464V11ZM99.1963 7.864H94.5903C94.5903 8.48933 94.7443 8.97933 95.0523 9.334C95.3696 9.67933 95.8176 9.852 96.3963 9.852C96.7789 9.852 97.0963 9.796 97.3483 9.684C97.6003 9.572 97.8569 9.38533 98.1183 9.124L99.0283 9.978C98.6456 10.3607 98.2536 10.6407 97.8523 10.818C97.4603 10.9953 96.9656 11.084 96.3683 11.084C95.3976 11.084 94.6229 10.7947 94.0443 10.216C93.4656 9.63733 93.1763 8.71333 93.1763 7.444C93.1763 6.30533 93.4469 5.41867 93.9883 4.784C94.5296 4.14 95.2623 3.818 96.1863 3.818C97.1289 3.818 97.8663 4.13067 98.3983 4.756C98.9303 5.38133 99.1963 6.21667 99.1963 7.262V7.864ZM97.7823 6.87C97.7543 6.45 97.6889 6.128 97.5863 5.904C97.3156 5.30667 96.8489 5.008 96.1863 5.008C95.5143 5.008 95.0429 5.30667 94.7723 5.904C94.6603 6.14667 94.5996 6.46867 94.5903 6.87H97.7823ZM102.613 2.502L101.045 3.776V1.032H102.613V2.502ZM109.249 8.83C109.249 9.54867 108.974 10.104 108.423 10.496C107.882 10.888 107.173 11.084 106.295 11.084C104.998 11.084 104.004 10.7433 103.313 10.062L104.251 9.124C104.737 9.61867 105.418 9.866 106.295 9.866C106.762 9.866 107.135 9.78667 107.415 9.628C107.705 9.46 107.849 9.21267 107.849 8.886C107.849 8.39133 107.532 8.11133 106.897 8.046L105.763 7.948C104.363 7.81733 103.663 7.164 103.663 5.988C103.663 5.30667 103.915 4.77467 104.419 4.392C104.923 4.00933 105.563 3.818 106.337 3.818C107.485 3.818 108.363 4.084 108.969 4.616L108.073 5.526C107.663 5.18067 107.079 5.008 106.323 5.008C105.903 5.008 105.581 5.092 105.357 5.26C105.143 5.41867 105.035 5.638 105.035 5.918C105.035 6.17 105.11 6.36133 105.259 6.492C105.418 6.61333 105.67 6.69267 106.015 6.73L107.009 6.814C108.503 6.94467 109.249 7.61667 109.249 8.83ZM121.461 3.734C121.554 4.28467 121.601 5.04533 121.601 6.016C121.601 6.98667 121.554 7.752 121.461 8.312C121.377 8.86267 121.172 9.33867 120.845 9.74C120.164 10.58 119.221 11 118.017 11H114.517V1.032H118.017C119.221 1.032 120.164 1.452 120.845 2.292C121.172 2.69333 121.377 3.174 121.461 3.734ZM119.991 7.948C120.056 7.50933 120.089 6.86533 120.089 6.016C120.089 5.16667 120.056 4.52733 119.991 4.098C119.926 3.65933 119.781 3.314 119.557 3.062C119.165 2.60467 118.596 2.376 117.849 2.376H116.029V9.656H117.849C118.596 9.656 119.165 9.42733 119.557 8.97C119.781 8.718 119.926 8.37733 119.991 7.948ZM128.895 11H127.495V10.356C127.234 10.6173 126.958 10.804 126.669 10.916C126.389 11.028 126.034 11.084 125.605 11.084C124.765 11.084 124.13 10.8693 123.701 10.44C123.328 10.048 123.141 9.53933 123.141 8.914C123.141 8.298 123.351 7.80333 123.771 7.43C124.2 7.05667 124.812 6.87 125.605 6.87H127.467V6.366C127.467 5.90867 127.346 5.57267 127.103 5.358C126.86 5.14333 126.464 5.036 125.913 5.036C125.54 5.036 125.236 5.092 125.003 5.204C124.779 5.30667 124.564 5.484 124.359 5.736L123.435 4.854C123.762 4.47133 124.112 4.20533 124.485 4.056C124.868 3.89733 125.362 3.818 125.969 3.818C127.92 3.818 128.895 4.63 128.895 6.254V11ZM127.467 8.438V7.864H125.829C124.961 7.864 124.527 8.20467 124.527 8.886C124.527 9.558 124.975 9.894 125.871 9.894C126.44 9.894 126.87 9.75867 127.159 9.488C127.364 9.292 127.467 8.942 127.467 8.438ZM136.391 3.902L133.255 12.414C133.124 12.7873 132.951 13.0813 132.737 13.296C132.391 13.6413 131.906 13.814 131.281 13.814H130.707V12.526H131.071C131.369 12.526 131.589 12.47 131.729 12.358C131.869 12.2553 131.99 12.0593 132.093 11.77L132.485 10.664L130.007 3.902H131.519L133.213 8.9L134.865 3.902H136.391Z" fill="url(#paint0_linear)"/>
<defs>
<linearGradient id="paint0_linear" x1="-19.8241" y1="5" x2="155.824" y2="5" gradientUnits="userSpaceOnUse">
<stop stop-color="#EE2C39"/>
<stop offset="0.52165" stop-color="#F61767"/>
<stop offset="1" stop-color="#C90085"/>
</linearGradient>
</defs>
</svg>
