<svg width="24" height="24" viewBox="0 0 24 24" fill="none" xmlns="http://www.w3.org/2000/svg">
<g clip-path="url(#clip0)">
<path d="M4.52457 20.0772C4.52457 19.7212 4.23203 19.4325 3.87115 19.4325H1.65342C1.29254 19.4325 1 19.7212 1 20.0772C1 20.4333 1.29254 20.722 1.65342 20.722H3.2351V22.3553C3.2351 22.7114 3.52377 23 3.87983 23C4.2359 23 4.52457 22.7114 4.52457 22.3553C4.52457 22.3553 4.52457 20.0923 4.52457 20.0772Z" fill="#FFDC81"/>
<path d="M2.28925 22.3552C2.12424 22.3552 1.95927 22.2923 1.83338 22.1664C1.58158 21.9146 1.58158 21.5064 1.83338 21.2546L6.17462 16.9133C6.42637 16.6615 6.83462 16.6615 7.08641 16.9133C7.3382 17.1651 7.3382 17.5733 7.08641 17.8251L2.74517 22.1664C2.61927 22.2923 2.45422 22.3552 2.28925 22.3552Z" fill="#383030"/>
<path d="M10.48 19.9912C9.102 19.9912 6.81017 18.2058 5.15014 16.4363C4.08335 15.2992 1.60205 12.3559 1.60205 9.59192C1.60205 6.84623 3.83586 4.61243 6.58154 4.61243C7.53275 4.61243 8.45765 4.88176 9.25631 5.39123C9.72486 5.69017 10.1377 6.06309 10.48 6.49352C10.8223 6.06309 11.2351 5.69017 11.7037 5.39123C12.5024 4.88171 13.4273 4.61243 14.3785 4.61243C17.1241 4.61243 19.3579 6.84623 19.3579 9.59192C19.3579 12.4961 17.1309 15.2353 15.8034 16.6096C14.2301 18.2383 11.8932 19.9912 10.48 19.9912Z" fill="#FF5B66"/>
<path d="M14.3779 4.61249C13.4267 4.61249 12.5018 4.88182 11.7032 5.39129C11.2346 5.69023 10.8218 6.06315 10.4795 6.49358V19.9912C11.8928 19.9912 14.2297 18.2383 15.8028 16.6097C17.1304 15.2353 19.3574 12.4961 19.3574 9.59194C19.3574 6.84625 17.1236 4.61249 14.3779 4.61249Z" fill="#EE2C39"/>
<path d="M15.6784 8.96622C15.5134 8.96622 15.3484 8.90329 15.2225 8.77735C14.9707 8.52556 14.9707 8.11735 15.2225 7.86556L19.4563 3.63178C19.7081 3.37998 20.1163 3.37998 20.3681 3.63178C20.6199 3.88357 20.6199 4.29177 20.3681 4.54357L16.1343 8.77735C16.0084 8.90325 15.8434 8.96622 15.6784 8.96622Z" fill="#1A1919"/>
<path d="M16.2581 10.865C16.2516 10.865 16.2451 10.8649 16.2386 10.8647C15.8827 10.8541 15.6027 10.557 15.6133 10.2011C15.6138 10.1835 15.6141 10.1658 15.6141 10.1482C15.6141 9.15278 14.8042 8.34294 13.8088 8.34294C13.4527 8.34294 13.1641 8.05427 13.1641 7.6982C13.1641 7.34214 13.4527 7.05347 13.8088 7.05347C15.5153 7.05347 16.9035 8.44176 16.9035 10.1482C16.9035 10.1786 16.9031 10.209 16.9022 10.2394C16.8918 10.5888 16.6053 10.865 16.2581 10.865Z" fill="#D4000E"/>
<path d="M21.142 5.63503C20.9729 5.63503 20.8083 5.5684 20.6861 5.44616L18.5541 3.31414C18.3982 3.15828 18.3328 2.93357 18.3806 2.71836C18.4284 2.50319 18.5829 2.32734 18.7901 2.25217L22.1357 1.03868C22.371 0.953405 22.6344 1.0119 22.8114 1.18891C22.9884 1.36591 23.0469 1.62935 22.9616 1.86464L21.7481 5.21014C21.6729 5.41736 21.4971 5.57184 21.2819 5.61968C21.2354 5.63 21.1885 5.63503 21.142 5.63503Z" fill="#FFBB0B"/>
</g>
<defs>
<clipPath id="clip0">
<rect width="22" height="22" fill="white" transform="translate(1 1)"/>
</clipPath>
</defs>
</svg>
