<svg width="31" height="40" viewBox="0 0 31 40" fill="none" xmlns="http://www.w3.org/2000/svg">
  <path d="M15.5 0C6.95333 0 0 6.88618 0 15.3504C0 18.937 1.2485 22.2399 3.33759 24.856L15.5 40L27.6624 24.856C29.7515 22.2399 31 18.937 31 15.3504C31 6.88618 24.0467 0 15.5 0Z" fill="#1A1919"/>
  <path fill-rule="evenodd" clip-rule="evenodd" d="M18.8847 10C17.1807 10 15.5729 10.5913 14.2827 11.6787V10.8315H11.5V25H14.2781V24.9939H14.2827V17.3639C14.3756 14.6387 16.3221 12.6082 18.8847 12.6082C19.3604 12.6082 19.8158 12.6783 20.2414 12.811C20.2493 12.813 20.2658 12.8185 20.2658 12.8185L21.5 10.4933C20.6783 10.1701 19.7953 10 18.8847 10Z" fill="#23BE20"/>
</svg>
