<svg width="91" height="26" viewBox="0 0 91 19" fill="none" xmlns="http://www.w3.org/2000/svg">
  <path d="M83.7686 8.41827L73.7064 0.0429953C73.6313 -0.0180144 73.5222 -0.0146249 73.454 0.056553L71.9668 1.59535L80.1837 8.41827L71.9668 15.2412L73.454 16.78C73.5222 16.8512 73.6313 16.8546 73.7064 16.7935L83.7686 8.41827Z" fill="#BDBDBD"/>
  <path d="M90.9991 8.48651L80.9368 0.111233C80.8618 0.0502229 80.7526 0.0536124 80.6844 0.12479L79.1973 1.66359L87.4142 8.48651L79.1973 15.3094L80.6844 16.8482C80.7526 16.9194 80.8618 16.9228 80.9368 16.8618L90.9991 8.48651Z" fill="#BDBDBD"/>
  <path d="M67.7435 0.65661C67.6002 0.602379 66.7714 0.609158 66.7714 0.609158C66.2154 0.622716 65.8606 0.609158 65.6116 0.95149C65.5741 1.00233 65.5468 1.05656 65.5195 1.11079L62.2007 8.24554L58.783 1.11418C58.7557 1.05995 58.7284 1.00572 58.6909 0.954879C58.4419 0.612547 58.0871 0.622716 57.5312 0.612547C57.5312 0.612547 56.7023 0.605768 56.5591 0.659999C56.218 0.788797 56.4431 1.2057 56.6034 1.54803L60.7954 9.8589C60.9864 10.2385 61.0853 10.6554 61.0853 11.0791V16.0954C61.0853 16.4344 61.3616 16.7089 61.7027 16.7089H62.5793C62.9204 16.7089 63.1967 16.4344 63.1967 16.0954V11.1028C63.1967 10.6791 63.2956 10.2622 63.4866 9.88263L67.6957 1.54464C67.8594 1.20231 68.0846 0.785408 67.7435 0.65661Z" fill="#BDBDBD"/>
  <path d="M52.089 1.46012C51.9355 1.01272 51.7342 0.633101 51.3011 0.616154H51.2738H50.9122H50.2164C50.1857 0.612764 50.1516 0.609375 50.1175 0.609375H49.7696C49.7354 0.609375 49.7013 0.612764 49.6706 0.616154C49.3091 0.670385 49.1283 1.02966 48.9919 1.44995L43.6367 16.3194C43.6367 16.516 43.797 16.6753 43.9949 16.6753H45.1136C45.5571 16.6753 45.7856 16.3126 45.9186 15.8754L46.9862 12.7774C47.0613 12.5639 47.2625 12.4215 47.4911 12.4215H53.4465C53.6716 12.4215 53.8729 12.5639 53.9479 12.774L55.0599 15.9059C55.1963 16.3431 55.4351 16.7058 55.899 16.7058H57.0689C57.277 16.7058 57.4441 16.5465 57.4441 16.3499L52.089 1.46012ZM47.7196 10.6624L50.421 2.83962L53.2009 10.6624H47.7196Z" fill="#BDBDBD"/>
  <path d="M41.9758 1.48707C41.2697 1.01256 40.2942 0.677002 38.4284 0.677002H35.4848H34.8163C34.3865 0.677002 34.0352 1.02272 34.0352 1.45318V15.8786C34.0352 16.3192 34.3933 16.6785 34.8401 16.6785H35.4609C35.9043 16.6785 36.2659 16.3226 36.2659 15.8786V10.4589C36.9344 10.4589 39.247 10.4589 39.5199 10.4589C39.8371 10.4589 43.9098 9.82506 43.9098 5.41881C43.9064 3.50039 42.9172 2.12429 41.9758 1.48707ZM38.7797 8.79807C38.5683 8.79807 36.5115 8.79807 36.5115 8.79807H36.2625V2.33782H38.0566C39.288 2.33782 39.9326 2.55813 40.3999 2.87335C41.0241 3.29364 41.6756 4.20201 41.6756 5.46965C41.679 8.38117 38.9912 8.79807 38.7797 8.79807Z" fill="#BDBDBD"/>
  <path d="M31.9711 17.0342C31.8824 16.9698 31.7835 16.9224 31.6778 16.8817C30.8387 16.5631 29.6142 15.7191 28.932 15.2819C28.4033 14.943 28.4852 14.6752 28.5568 14.5633C28.5704 14.5464 28.5875 14.5261 28.6011 14.5091C28.6045 14.5057 28.6045 14.5057 28.6045 14.5057C29.7643 13.0923 30.4362 11.079 30.4362 8.53694C30.4362 4.04256 28.5022 0.398926 23.2528 0.398926C18.4229 0.398926 16.1035 4.04256 16.1035 8.53694C16.1035 13.0313 17.6623 16.8783 23.2528 16.8783C24.3886 16.8783 25.4324 16.6614 26.3499 16.2411H26.3533C26.6228 16.1259 26.8854 16.1293 27.247 16.3902C29.8393 18.2985 31.1252 19.0001 32.0462 19.0001C32.4896 19.0001 32.4111 17.6443 32.4111 17.6443C32.4111 17.6443 32.3463 17.302 31.9711 17.0342ZM18.3957 8.57084C18.3957 8.56067 18.3957 8.5505 18.3957 8.53694C18.4025 5.48646 19.5213 2.24955 23.2596 2.24955C27.496 2.24955 28.1441 5.48646 28.1475 8.53694C28.1475 8.54711 28.1475 8.55728 28.1475 8.57084C28.1475 12.2009 26.9639 14.9599 23.2596 14.9599C19.0062 14.9599 18.3957 11.6315 18.3957 8.57084Z" fill="#BDBDBD"/>
  <path d="M12.3167 0.599121H11.0478C10.7818 0.599121 10.5703 0.812655 10.5703 1.07364V16.1735C10.5703 16.4481 10.7954 16.6752 11.0751 16.6752H12.2962C12.5725 16.6752 12.8011 16.4515 12.8011 16.1735V1.07703C12.7976 0.812655 12.5828 0.599121 12.3167 0.599121Z" fill="#BDBDBD"/>
  <path d="M7.7769 14.7602H2.11136V1.07706C2.11136 0.812684 1.89647 0.602539 1.63383 0.602539H0.477529C0.211477 0.602539 0 0.816073 0 1.07706V14.7636V16.0143C0 16.3261 0.252408 16.5769 0.566213 16.5769H2.11477H7.78031C8.05318 16.5769 8.27148 16.36 8.27148 16.0888V15.2483C8.26807 14.9805 8.04636 14.7602 7.7769 14.7602Z" fill="#BDBDBD"/>
</svg>
