<svg width="34" height="26" viewBox="0 0 34 26" fill="none" xmlns="http://www.w3.org/2000/svg">
  <path d="M6.19237 25.8553V24.1341C6.20243 23.9893 6.18143 23.8441 6.13078 23.7081C6.08013 23.572 6.00098 23.4483 5.8986 23.3452C5.79623 23.242 5.67299 23.1618 5.53708 23.1099C5.40117 23.0579 5.25573 23.0355 5.11043 23.044C4.92024 23.0315 4.73019 23.0702 4.56012 23.156C4.39005 23.2418 4.2462 23.3715 4.14359 23.5317C4.05005 23.3763 3.91621 23.2491 3.75618 23.1632C3.59614 23.0774 3.41585 23.0362 3.2343 23.044C3.07604 23.036 2.91844 23.0694 2.77711 23.1408C2.63579 23.2123 2.51565 23.3193 2.4286 23.4513V23.1128H1.83008V25.8553H2.43435V24.3464C2.4215 24.2526 2.42959 24.1571 2.45804 24.0668C2.48649 23.9765 2.53459 23.8936 2.59892 23.824C2.66325 23.7544 2.74222 23.6998 2.83017 23.6641C2.91812 23.6285 3.01288 23.6126 3.10769 23.6177C3.50478 23.6177 3.70621 23.8759 3.70621 24.3407V25.8668H4.31048V24.3464C4.29815 24.2527 4.30661 24.1574 4.33525 24.0674C4.3639 23.9773 4.41203 23.8946 4.47625 23.8251C4.54047 23.7556 4.61921 23.701 4.70692 23.6652C4.79462 23.6293 4.88915 23.6131 4.98382 23.6177C5.39242 23.6177 5.58809 23.8759 5.58809 24.3407V25.8668L6.19237 25.8553ZM15.1328 23.1128H14.1487V22.2809H13.5444V23.1128H12.9977V23.6579H13.5559V24.9201C13.5559 25.557 13.8034 25.9357 14.5112 25.9357C14.7757 25.9366 15.035 25.863 15.2594 25.7234L15.0867 25.2127C14.9262 25.3082 14.744 25.3615 14.5573 25.3677C14.2695 25.3677 14.1602 25.1841 14.1602 24.9087V23.6579H15.1385L15.1328 23.1128ZM20.2374 23.044C20.0915 23.0397 19.9471 23.0747 19.8195 23.1454C19.6919 23.2161 19.5858 23.3198 19.5123 23.4456V23.1128H18.9195V25.8553H19.5181V24.3177C19.5181 23.8644 19.7137 23.612 20.0936 23.612C20.2216 23.6102 20.3487 23.6336 20.4676 23.6808L20.6518 23.1071C20.5151 23.0583 20.3711 23.0331 20.2259 23.0325L20.2374 23.044ZM12.52 23.3309C12.1812 23.13 11.7917 23.0305 11.3978 23.044C10.7014 23.044 10.2468 23.3768 10.2468 23.9218C10.2468 24.3693 10.5806 24.6447 11.1963 24.7308L11.4841 24.771C11.8121 24.8169 11.9675 24.9029 11.9675 25.0578C11.9675 25.2701 11.7488 25.3906 11.3402 25.3906C11.0115 25.4001 10.6892 25.299 10.4252 25.1037L10.1374 25.5685C10.4861 25.8112 10.9036 25.9359 11.3287 25.9242C12.1229 25.9242 12.5833 25.5513 12.5833 25.0291C12.5833 24.507 12.2207 24.2947 11.6222 24.2087L11.3345 24.1685C11.0755 24.1341 10.8683 24.0825 10.8683 23.8989C10.8683 23.7153 11.064 23.5776 11.392 23.5776C11.6952 23.5811 11.9924 23.6621 12.2553 23.8128L12.52 23.3309ZM28.5505 23.044C28.4046 23.0397 28.2602 23.0747 28.1326 23.1454C28.005 23.2161 27.8989 23.3198 27.8254 23.4456V23.1128H27.2326V25.8553H27.8312V24.3177C27.8312 23.8644 28.0268 23.612 28.4067 23.612C28.5347 23.6102 28.6618 23.6336 28.7807 23.6808L28.9649 23.1071C28.8282 23.0583 28.6842 23.0331 28.539 23.0325L28.5505 23.044ZM20.8388 24.4783C20.8317 24.6711 20.865 24.8632 20.9366 25.0423C21.0083 25.2215 21.1166 25.3837 21.2547 25.5188C21.3929 25.6538 21.5578 25.7586 21.7388 25.8264C21.9199 25.8942 22.1132 25.9236 22.3064 25.9127C22.6657 25.9309 23.0189 25.8143 23.2962 25.5857L23.0085 25.1037C22.8016 25.261 22.5493 25.3476 22.2891 25.3504C22.0679 25.3326 21.8615 25.2324 21.711 25.0697C21.5605 24.9071 21.4769 24.6939 21.4769 24.4726C21.4769 24.2513 21.5605 24.0382 21.711 23.8755C21.8615 23.7128 22.0679 23.6126 22.2891 23.5948C22.5493 23.5977 22.8016 23.6842 23.0085 23.8415L23.2962 23.3595C23.0189 23.131 22.6657 23.0143 22.3064 23.0325C22.1132 23.0216 21.9199 23.051 21.7388 23.1188C21.5578 23.1867 21.3929 23.2915 21.2547 23.4265C21.1166 23.5615 21.0083 23.7238 20.9366 23.9029C20.865 24.0821 20.8317 24.2741 20.8388 24.4669V24.4783ZM26.4442 24.4783V23.1128H25.8457V23.4456C25.744 23.3152 25.6128 23.2108 25.4627 23.141C25.3126 23.0711 25.148 23.0379 24.9824 23.044C24.6009 23.044 24.2349 23.1951 23.9651 23.4641C23.6953 23.7331 23.5437 24.0979 23.5437 24.4783C23.5437 24.8588 23.6953 25.2236 23.9651 25.4926C24.2349 25.7616 24.6009 25.9127 24.9824 25.9127C25.148 25.9188 25.3126 25.8856 25.4627 25.8157C25.6128 25.7459 25.744 25.6415 25.8457 25.5111V25.8439H26.4442V24.4783ZM24.217 24.4783C24.2266 24.3169 24.2833 24.1618 24.3801 24.0321C24.477 23.9024 24.6098 23.8037 24.7621 23.7483C24.9145 23.6929 25.0798 23.6831 25.2377 23.7201C25.3956 23.7572 25.5392 23.8395 25.6508 23.9568C25.7623 24.0742 25.8371 24.2216 25.8657 24.3807C25.8943 24.5399 25.8757 24.7039 25.812 24.8527C25.7483 25.0014 25.6424 25.1283 25.5072 25.2178C25.3721 25.3072 25.2137 25.3553 25.0515 25.3562C24.9376 25.3576 24.8246 25.3355 24.7196 25.2913C24.6146 25.2471 24.52 25.1817 24.4416 25.0993C24.3632 25.0168 24.3028 24.9191 24.2642 24.8122C24.2255 24.7054 24.2095 24.5917 24.217 24.4783ZM16.9945 23.044C16.6129 23.0493 16.2491 23.2055 15.983 23.4783C15.717 23.7511 15.5705 24.118 15.5759 24.4984C15.5812 24.8788 15.7379 25.2416 16.0115 25.5068C16.2851 25.772 16.6532 25.918 17.0348 25.9127C17.4488 25.9339 17.8559 25.801 18.1771 25.5398L17.8894 25.098C17.6622 25.2797 17.3807 25.3806 17.0895 25.3849C16.8916 25.4018 16.6949 25.3412 16.5412 25.2158C16.3876 25.0905 16.289 24.9103 16.2665 24.7136H18.3095C18.3095 24.639 18.3095 24.5644 18.3095 24.4841C18.3095 23.6235 17.7743 23.0497 17.0031 23.0497L16.9945 23.044ZM16.9945 23.5776C17.0841 23.5757 17.1731 23.5914 17.2566 23.6238C17.3401 23.6562 17.4163 23.7047 17.481 23.7665C17.5456 23.8283 17.5975 23.9022 17.6335 23.984C17.6695 24.0658 17.689 24.1538 17.6909 24.2431H16.2521C16.2625 24.059 16.3448 23.8862 16.4815 23.7618C16.6181 23.6374 16.7981 23.5713 16.983 23.5776H16.9945ZM31.9891 24.4841V22.0112H31.4136V23.4456C31.312 23.3152 31.1807 23.2108 31.0306 23.141C30.8805 23.0711 30.7159 23.0379 30.5504 23.044C30.1688 23.044 29.8029 23.1951 29.533 23.4641C29.2632 23.7331 29.1116 24.0979 29.1116 24.4783C29.1116 24.8588 29.2632 25.2236 29.533 25.4926C29.8029 25.7616 30.1688 25.9127 30.5504 25.9127C30.7159 25.9188 30.8805 25.8856 31.0306 25.8157C31.1807 25.7459 31.312 25.6415 31.4136 25.5111V25.8439H31.9891V24.4841ZM32.9876 25.4566C33.025 25.4561 33.0622 25.463 33.097 25.4767C33.13 25.4901 33.1603 25.5096 33.1862 25.534C33.2115 25.5588 33.232 25.588 33.2466 25.6201C33.2612 25.6536 33.2687 25.6897 33.2687 25.7263C33.2687 25.7628 33.2612 25.7989 33.2466 25.8324C33.232 25.8645 33.2115 25.8937 33.1862 25.9185C33.1603 25.9429 33.13 25.9624 33.097 25.9758C33.0625 25.991 33.0253 25.9988 32.9876 25.9988C32.9331 25.9984 32.8798 25.9825 32.8339 25.9531C32.7881 25.9236 32.7516 25.8818 32.7287 25.8324C32.7143 25.7989 32.7068 25.7627 32.7068 25.7263C32.7068 25.6898 32.7143 25.6537 32.7287 25.6201C32.7433 25.588 32.7638 25.5588 32.7891 25.534C32.815 25.5096 32.8452 25.4901 32.8783 25.4767C32.9158 25.4618 32.956 25.455 32.9963 25.4566H32.9876ZM32.9876 25.9414C33.0164 25.9416 33.0448 25.9357 33.0711 25.9242C33.0958 25.9132 33.1183 25.8976 33.1373 25.8783C33.1733 25.8391 33.1932 25.788 33.1932 25.7349C33.1932 25.6818 33.1733 25.6306 33.1373 25.5914C33.1183 25.5721 33.0959 25.5565 33.0711 25.5455C33.0448 25.5341 33.0163 25.5282 32.9876 25.5283C32.9589 25.5285 32.9306 25.5343 32.9042 25.5455C32.8783 25.5561 32.8549 25.5717 32.8351 25.5914C32.7991 25.6306 32.7792 25.6818 32.7792 25.7349C32.7792 25.788 32.7991 25.8391 32.8351 25.8783C32.8549 25.898 32.8784 25.9136 32.9042 25.9242C32.9332 25.9367 32.9647 25.9426 32.9963 25.9414H32.9876ZM33.0049 25.6C33.0318 25.5987 33.0582 25.6068 33.0797 25.623C33.0885 25.6302 33.0955 25.6395 33.1 25.65C33.1045 25.6605 33.1064 25.6719 33.1056 25.6832C33.106 25.6928 33.1044 25.7023 33.101 25.7112C33.0975 25.72 33.0922 25.7281 33.0855 25.7349C33.0688 25.75 33.0475 25.7591 33.025 25.7607L33.1085 25.8553H33.0423L32.9646 25.7607H32.9387V25.8553H32.884V25.6029L33.0049 25.6ZM32.9416 25.6488V25.7176H33.0049C33.0162 25.721 33.0282 25.721 33.0394 25.7176C33.0415 25.7136 33.0425 25.7092 33.0425 25.7047C33.0425 25.7003 33.0415 25.6958 33.0394 25.6918C33.0415 25.6878 33.0425 25.6834 33.0425 25.6789C33.0425 25.6744 33.0415 25.67 33.0394 25.666C33.0282 25.6627 33.0162 25.6627 33.0049 25.666L32.9416 25.6488ZM29.7763 24.4841C29.7859 24.3227 29.8426 24.1675 29.9394 24.0378C30.0363 23.9081 30.1691 23.8094 30.3215 23.754C30.4739 23.6986 30.6392 23.6888 30.7971 23.7259C30.9549 23.7629 31.0985 23.8452 31.2101 23.9626C31.3217 24.0799 31.3964 24.2273 31.425 24.3865C31.4537 24.5456 31.435 24.7097 31.3713 24.8584C31.3076 25.0071 31.2017 25.134 31.0666 25.2235C30.9314 25.313 30.773 25.3611 30.6108 25.3619C30.4969 25.3634 30.3839 25.3413 30.2789 25.2971C30.174 25.2528 30.0793 25.1875 30.001 25.105C29.9226 25.0226 29.8622 24.9248 29.8235 24.818C29.7848 24.7111 29.7688 24.5974 29.7763 24.4841ZM9.56767 24.4841V23.1128H8.96915V23.4456C8.86751 23.3152 8.73622 23.2108 8.58613 23.141C8.43603 23.0711 8.27143 23.0379 8.1059 23.044C7.72432 23.044 7.35837 23.1951 7.08855 23.4641C6.81874 23.7331 6.66715 24.0979 6.66715 24.4783C6.66715 24.8588 6.81874 25.2236 7.08855 25.4926C7.35837 25.7616 7.72432 25.9127 8.1059 25.9127C8.27143 25.9188 8.43603 25.8856 8.58613 25.8157C8.73622 25.7459 8.86751 25.6415 8.96915 25.5111V25.8439H9.56767V24.4841ZM7.34049 24.4841C7.35003 24.3227 7.40672 24.1675 7.50358 24.0378C7.60044 23.9081 7.73323 23.8094 7.88561 23.754C8.038 23.6986 8.20331 23.6888 8.3612 23.7259C8.51909 23.7629 8.66266 23.8452 8.77424 23.9626C8.88582 24.0799 8.96053 24.2273 8.98917 24.3865C9.01782 24.5456 8.99914 24.7097 8.93545 24.8584C8.87176 25.0071 8.76583 25.134 8.63071 25.2235C8.49558 25.313 8.33717 25.3611 8.17496 25.3619C8.06055 25.3642 7.94692 25.3427 7.84128 25.2988C7.73564 25.255 7.64029 25.1897 7.56129 25.1071C7.48229 25.0246 7.42135 24.9266 7.38235 24.8193C7.34335 24.7121 7.32714 24.5979 7.33473 24.4841H7.34049Z" fill="#5F5E5E"/>
  <path d="M33.6149 10.3327C33.6149 12.271 33.0679 14.1703 32.0366 15.8133C31.0052 17.4563 29.5311 18.7769 27.7828 19.6239C26.0344 20.471 24.0823 20.8104 22.1496 20.6034C20.2169 20.3963 18.3816 19.6512 16.8535 18.4532C18.0869 17.4866 19.084 16.2533 19.7697 14.8464C20.4553 13.4394 20.8116 11.8955 20.8116 10.3312C20.8116 8.76693 20.4553 7.22306 19.7697 5.8161C19.084 4.40914 18.0869 3.17584 16.8535 2.20924C18.3816 1.01122 20.2169 0.266114 22.1496 0.0590911C24.0823 -0.147932 26.0344 0.191482 27.7828 1.03854C29.5311 1.88559 31.0052 3.20611 32.0366 4.84914C33.0679 6.49217 33.6149 8.39142 33.6149 10.3298V10.3327Z" fill="#E0E0E0"/>
  <path d="M12.8971 10.3329C12.8954 8.7683 13.2508 7.22379 13.9363 5.81638C14.6218 4.40897 15.6194 3.17555 16.8537 2.20951C15.3255 1.01187 13.4902 0.267121 11.5576 0.0603948C9.62504 -0.146332 7.67312 0.193301 5.92496 1.04048C4.17679 1.88765 2.7029 3.20819 1.67174 4.85116C0.640579 6.49414 0.09375 8.39327 0.09375 10.3315C0.09375 12.2697 0.640579 14.1688 1.67174 15.8118C2.7029 17.4548 4.17679 18.7753 5.92496 19.6225C7.67312 20.4697 9.62504 20.8093 11.5576 20.6026C13.4902 20.3959 15.3255 19.6511 16.8537 18.4535C15.6198 17.4877 14.6224 16.2548 13.9369 14.8479C13.2514 13.441 12.8959 11.8971 12.8971 10.3329Z" fill="#BDBDBD"/>
</svg>
