<svg width="63" height="26" viewBox="0 0 63 22" fill="none" xmlns="http://www.w3.org/2000/svg">
  <path d="M57.8911 20.592H62.5419L58.4659 1.30273H54.3898C52.5086 1.30273 52.0382 2.74685 52.0382 2.74685L44.4609 20.592H49.7389L50.7841 17.7038H57.264L57.8911 20.592ZM52.2995 13.7324L54.9646 6.51186L56.4801 13.7324H52.2995Z" fill="#BDBDBD"/>
  <path d="M44.8268 5.9449L45.5584 1.81886C45.5584 1.81886 43.3114 0.993652 40.9598 0.993652C38.4514 0.993652 32.4419 2.07674 32.4419 7.38902C32.4419 12.3918 39.4966 12.4434 39.4966 15.0738C39.4966 17.7041 33.1735 17.2399 31.0832 15.5895L30.3516 19.9219C30.3516 19.9219 32.5986 21.005 36.0999 21.005C39.5488 21.005 44.8268 19.2514 44.8268 14.4033C44.8268 9.40046 37.7198 8.93628 37.7198 6.71854C37.7198 4.44921 42.6843 4.75867 44.8268 5.9449Z" fill="#BDBDBD"/>
  <path d="M27.2174 20.592H22.1484L25.3361 1.30273H30.4051L27.2174 20.592Z" fill="#BDBDBD"/>
  <path d="M17.8622 1.30273L13.0022 14.5576L12.4274 11.721L10.7029 3.0563C10.7029 3.0563 10.4939 1.30273 8.29909 1.30273H0.303733L0.199219 1.61219C0.199219 1.61219 2.65531 2.12794 5.52946 3.82993L9.97132 20.592H15.2493L23.3492 1.30273H17.8622Z" fill="#BDBDBD"/>
  <path d="M12.4274 11.7212L10.7029 3.05655C10.7029 3.05655 10.4939 1.30298 8.29909 1.30298H0.303733L0.199219 1.61243C0.199219 1.61243 4.06626 2.38606 7.72426 5.37744C11.2778 8.16252 12.4274 11.7212 12.4274 11.7212Z" fill="#E0E0E0"/>
</svg>
