<svg width="18" height="18" viewBox="0 0 18 18" fill="none" xmlns="http://www.w3.org/2000/svg">
<path d="M8.9915 0.666687C4.3915 0.666687 0.666504 4.40002 0.666504 9.00002C0.666504 13.6 4.3915 17.3334 8.9915 17.3334C13.5998 17.3334 17.3332 13.6 17.3332 9.00002C17.3332 4.40002 13.5998 0.666687 8.9915 0.666687ZM8.99984 15.6667C5.3165 15.6667 2.33317 12.6834 2.33317 9.00002C2.33317 5.31669 5.3165 2.33335 8.99984 2.33335C12.6832 2.33335 15.6665 5.31669 15.6665 9.00002C15.6665 12.6834 12.6832 15.6667 8.99984 15.6667ZM9.4165 4.83335H8.1665V9.83335L12.5415 12.4584L13.1665 11.4334L9.4165 9.20835V4.83335Z" fill="#BDBDBD"/>
</svg>
