<svg width="22" height="22" viewBox="0 0 22 22" fill="none" xmlns="http://www.w3.org/2000/svg">
<path d="M10.9991 21.8456C16.7399 21.8456 21.3937 17.2928 21.3937 11.6765C21.3937 6.06032 16.7399 1.50748 10.9991 1.50748C5.25832 1.50748 0.604492 6.06032 0.604492 11.6765C0.604492 17.2928 5.25832 21.8456 10.9991 21.8456Z" fill="#FFCA41"/>
<path d="M17.9777 19.2135C3.54596 20.0946 2.29183 8.92469 8.16648 1.88989C3.80227 3.09628 0.604492 7.02118 0.604492 11.6768C0.604492 17.293 5.25831 21.8459 10.9991 21.8459C13.6849 21.8459 16.1329 20.8493 17.9777 19.2135Z" fill="#FFBB0B"/>
<path d="M6.8892 12.6014C6.88971 13.6583 5.81425 14.5157 4.48707 14.5163C3.15989 14.517 2.08352 13.6608 2.08301 12.6038C2.08249 11.5469 3.15796 10.6896 4.48518 10.6889C5.81231 10.6882 6.88864 11.5445 6.8892 12.6014Z" fill="#EE2C39"/>
<path d="M15.1084 12.5961C15.109 13.653 16.1853 14.5092 17.5125 14.5086C18.8396 14.5079 19.9151 13.6506 19.9146 12.5937C19.9141 11.5367 18.8377 10.6805 17.5105 10.6811C16.1833 10.6818 15.1079 11.5392 15.1084 12.5961Z" fill="#EE2C39"/>
<path d="M13.2268 12.6252C13.2262 11.2482 12.2285 11.1193 10.9979 11.1199C9.76734 11.1205 8.76982 11.2504 8.77051 12.6275C8.7712 14.0045 9.76936 15.1202 10.9999 15.1196C12.2305 15.119 13.2275 14.0022 13.2268 12.6252Z" fill="#1A1919"/>
<path d="M4.99409 11.4973L3.98634 12.3302C3.44317 12.7791 2.61856 12.5427 2.39581 11.8741L1.98258 10.6337C1.90966 10.4148 1.76353 10.2278 1.56879 10.1041L0.465182 9.4031C-0.129634 9.02523 -0.159583 8.16792 0.407432 7.74949L1.45944 6.97317C1.64506 6.83619 1.77779 6.63944 1.83524 6.416L2.16094 5.14975C2.33647 4.46728 3.14261 4.17385 3.71577 4.58386L4.7792 5.34449C4.96685 5.47868 5.19501 5.54412 5.42524 5.52973L6.73015 5.44822C7.43347 5.40426 7.96164 6.08024 7.74882 6.75206L7.35402 7.99849C7.28437 8.21841 7.29266 8.45564 7.37748 8.67014L7.85826 9.88598C8.1174 10.5413 7.6377 11.2525 6.93301 11.2577L5.6256 11.2674C5.39494 11.2691 5.17189 11.3503 4.99409 11.4973Z" fill="#23BE20"/>
<path d="M7.84689 10.6524C3.68334 9.72443 2.2857 7.32582 2.08099 5.4621L1.8353 6.41725C1.77785 6.64069 1.64512 6.83744 1.45949 6.97443L0.407448 7.75074C-0.159568 8.16917 -0.129661 9.02648 0.465198 9.40435L1.56881 10.1054C1.76354 10.2291 1.90968 10.4161 1.9826 10.635L2.39583 11.8754C2.61853 12.544 3.44319 12.7804 3.98636 12.3315L4.9941 11.4985C5.17191 11.3516 5.39496 11.2704 5.62566 11.2686L6.93307 11.259C7.35554 11.2558 7.69688 10.9989 7.84689 10.6524Z" fill="#1DA01B"/>
<path d="M17.0058 11.4973L18.0135 12.3302C18.5567 12.7791 19.3813 12.5427 19.604 11.8741L20.0173 10.6337C20.0902 10.4148 20.2363 10.2278 20.4311 10.1041L21.5347 9.4031C22.1295 9.02523 22.1594 8.16792 21.5924 7.74949L20.5404 6.97317C20.3548 6.83619 20.2221 6.63944 20.1646 6.416L19.8389 5.14975C19.6634 4.46728 18.8572 4.17385 18.2841 4.58386L17.2206 5.34449C17.033 5.47868 16.8048 5.54412 16.5746 5.52973L15.2697 5.44822C14.5664 5.40426 14.0382 6.08024 14.251 6.75206L14.6458 7.99849C14.7154 8.21841 14.7071 8.45564 14.6223 8.67014L14.1415 9.88598C13.8824 10.5413 14.3621 11.2525 15.0668 11.2577L16.3742 11.2674C16.6049 11.2691 16.8279 11.3503 17.0058 11.4973Z" fill="#23BE20"/>
<path d="M19.604 11.8742L19.9082 10.9612C17.5971 9.98551 16.6302 7.39496 16.8859 5.49952C16.785 5.52539 16.6801 5.53634 16.5746 5.52972L15.2696 5.44817C14.5663 5.40421 14.0382 6.08024 14.251 6.75202L14.6458 7.99841C14.7154 8.21833 14.7071 8.45556 14.6223 8.6701L14.1415 9.88595C13.8824 10.5413 14.3621 11.2524 15.0668 11.2577L16.3742 11.2674C16.6049 11.2691 16.8279 11.3502 17.0058 11.4972L18.0135 12.3302C18.5567 12.7792 19.3813 12.5427 19.604 11.8742Z" fill="#1DA01B"/>
</svg>
