<svg width="16" height="16" viewBox="0 0 16 16" fill="none" xmlns="http://www.w3.org/2000/svg">
<g clip-path="url(#clip0)">
<path d="M14.3122 5.55625L13.0372 3.64375C12.9247 3.475 12.7091 3.39059 12.5122 3.45625C12.3153 3.5125 12.1747 3.7 12.1747 3.90628C12.1747 4.825 12.0341 5.74375 11.7716 6.63438C11.5466 5.9875 11.1154 5.41562 10.5247 5.03122C9.48409 4.33747 9.20287 2.98122 9.89662 1.94062L10.7122 0.721875C10.806 0.581219 10.8154 0.393719 10.731 0.24375C10.656 0.0937188 10.4966 0 10.3185 0C9.49355 0 8.7154 0.159344 7.99352 0.449969C5.79043 1.33122 4.19665 3.37188 4.04668 5.85622C3.89665 5.45309 3.8123 5.02184 3.8123 4.58122V2.74375C3.8123 2.53753 3.67165 2.35003 3.47477 2.29378C3.27793 2.22816 3.06227 2.31256 2.94977 2.48128L2.32168 3.42816C1.15918 5.17191 0.549805 7.19687 0.549805 9.28753C0.549742 12.9906 3.55915 16 7.26227 16H8.72477C12.4278 16 15.4497 12.9906 15.4497 9.28753C15.4497 7.95622 15.0529 6.66247 14.3122 5.55625Z" fill="#FF5B66"/>
<path d="M8.39708 8.32161C8.31273 8.16227 8.15333 8.08723 7.99395 8.08723C7.83461 8.08723 7.68454 8.16227 7.59083 8.32161C5.6502 11.6873 5.2002 12.1185 5.2002 13.206C5.2002 14.7435 6.45642 15.9997 7.99392 15.9997C9.53142 15.9997 10.7876 14.7435 10.7876 13.206C10.7877 12.0154 9.99083 11.0872 8.39708 8.32161Z" fill="#FFDC81"/>
<path d="M15.4499 9.28753C15.4499 12.9906 12.428 16 8.72493 16H7.99365V0.449969C8.71556 0.159344 9.49369 0 10.3186 0C10.4967 0 10.6562 0.0937188 10.7311 0.24375C10.8155 0.393719 10.8062 0.58125 10.7124 0.721875L9.89678 1.94062C9.20303 2.98125 9.48428 4.3375 10.5249 5.03122C11.1155 5.41562 11.5468 5.9875 11.7718 6.63438C12.0343 5.74375 12.1749 4.825 12.1749 3.90628C12.1749 3.7 12.3155 3.5125 12.5124 3.45625C12.7093 3.39062 12.9249 3.47503 13.0374 3.64375L14.3124 5.55625C15.0531 6.66247 15.4499 7.95622 15.4499 9.28753Z" fill="#EE2C39"/>
<path d="M10.7874 13.206C10.7874 14.7435 9.53116 15.9997 7.99365 15.9997V8.08723C8.153 8.08723 8.31243 8.16227 8.39678 8.32161C9.99053 11.0872 10.7874 12.0154 10.7874 13.206Z" fill="#FFCA41"/>
</g>
<defs>
<clipPath id="clip0">
<rect width="16" height="16" fill="white"/>
</clipPath>
</defs>
</svg>
