<svg width="20" height="20" viewBox="0 0 20 20" fill="none" xmlns="http://www.w3.org/2000/svg">
<path d="M19.3643 6.19727L19.4174 18.4303L9.05935 19.8562L9.04004 7.47996L19.3643 6.19727Z" fill="#EA0010"/>
<path d="M15.0759 19.0274L13.3828 19.2607V6.94077L15.0759 6.72993V19.0274Z" fill="#FFBB0B"/>
<path d="M9.05971 19.8553L0.583008 17.2223L0.655431 5.06978L9.0404 7.47905L9.05971 19.8553Z" fill="#D5000E"/>
<path d="M5.60416 18.7828L3.61816 18.1663V5.92204L5.60416 6.49177V18.7828Z" fill="#FFBB0B"/>
<g style="mix-blend-mode:multiply" opacity="0.1">
<path d="M19.3641 6.19636L9.03979 7.47905L0.654821 5.06978L0.643555 7.08475L9.00116 10.5981L19.3721 8.10993L19.3641 6.19636Z" fill="black"/>
</g>
<path d="M8.98034 5.98529L19.9436 4.62374L11.0404 2.06641L0.0771484 3.42796L8.98034 5.98529Z" fill="#FF5B66"/>
<path d="M19.9427 4.62589L19.999 7.16391L9.00041 8.67835L8.97949 5.98744L19.9427 4.62589Z" fill="#EE2C39"/>
<path d="M9.00137 8.6774L0 5.88188L0.0772512 3.42915L8.98045 5.98649L9.00137 8.6774Z" fill="#EA0010"/>
<path d="M13.623 8.04181L15.3676 7.8004V5.19318L13.623 5.41045V8.04181Z" fill="#FFCA41"/>
<path d="M5.4668 2.7592L13.6216 5.40988L15.3662 5.19261L7.65719 2.48721L5.4668 2.7592Z" fill="#FFDC81"/>
<path d="M5.42011 7.56508V4.96429L3.33594 4.36398V6.9181L5.42011 7.56508Z" fill="#FFCA41"/>
<path d="M16.0743 3.51221L5.42011 4.96389L3.33594 4.36358L13.9065 2.88937L16.0743 3.51221Z" fill="#FFDC81"/>
<path d="M8.93727 4.4089C8.93727 4.4089 5.9116 4.54409 4.82847 3.61225C3.74534 2.68041 4.20724 1.19815 4.20724 1.19815C4.20724 1.19815 4.50659 3.82147 9.17385 3.40303L8.93727 4.4089Z" fill="#D29700"/>
<path d="M4.14442 2.43259C4.14442 2.43259 4.31663 1.44925 5.63312 1.56674C6.94961 1.68422 9.05148 4.14177 9.05148 4.14177L8.7296 2.94599C8.7296 2.94599 7.49036 0.422453 5.63312 0.416016C4.35525 0.416016 4.14764 1.08714 4.12511 1.55869C4.11224 1.77757 4.14442 2.43259 4.14442 2.43259Z" fill="#FFBB0B"/>
<path d="M11.8508 4.07943C11.8508 4.07943 14.3888 3.91849 15.2917 3.15564C16.0353 2.52636 15.4527 1.13423 15.4527 1.13423C15.4527 1.13423 15.1453 2.70983 13.5182 3.0124C11.8911 3.31497 11.4404 3.0124 11.4404 3.0124L11.8508 4.07943Z" fill="#D29700"/>
<path d="M11.6452 3.49131C11.6452 3.49131 12.7718 1.9833 13.9789 1.52301C15.1859 1.06273 15.6736 2.22149 15.6124 2.68017C15.7669 2.36543 15.8412 2.01741 15.8289 1.66703C15.8165 1.31664 15.7178 0.974723 15.5416 0.671642C14.9268 -0.372857 12.9102 0.282168 10.8438 2.93446L11.6452 3.49131Z" fill="#FFBB0B"/>
<path d="M10.9787 2.67986C10.2345 2.81983 9.4818 2.91016 8.72559 2.95023C8.90658 3.41379 8.98084 3.91216 8.94285 4.40835C8.94285 4.40835 10.7389 4.80909 12.0168 4.23614C12.0976 4.19931 12.1686 4.14404 12.2242 4.07479C12.2798 4.00554 12.3183 3.92423 12.3368 3.83738C12.3553 3.75053 12.3531 3.66056 12.3305 3.57469C12.3079 3.48883 12.2655 3.40945 12.2067 3.34293C11.909 3.02427 11.4873 2.67986 10.9787 2.67986Z" fill="#FFCA41"/>
</svg>
