<svg width="24" height="24" viewBox="0 0 24 24" fill="none" xmlns="http://www.w3.org/2000/svg">
<path fill-rule="evenodd" clip-rule="evenodd" d="M19.2312 7.10558C19.3038 7.08245 19.3993 7.12872 19.4948 7.25595C19.4948 7.25595 19.4948 7.25595 23.8112 11.52C24.0633 11.7745 24.0633 12.16 23.8112 12.349C23.8112 12.349 23.8112 12.349 19.4948 16.6786C19.3993 16.8058 19.3038 16.8367 19.2312 16.7981C19.1586 16.7596 19.1128 16.6478 19.1128 16.4858V7.38317C19.1128 7.2251 19.1586 7.12872 19.2312 7.10558Z" fill="#BDBDBD"/>
<path fill-rule="evenodd" clip-rule="evenodd" d="M11.8472 0H12.1527L12.4469 0.123374C12.4469 0.123374 12.4469 0.123374 16.8894 4.58024C17.0804 4.8347 17.0154 5.02747 16.6984 5.02747C16.6984 5.02747 16.6984 5.02747 14.8572 5.02747C14.5402 5.02747 14.288 5.28193 14.288 5.60193C14.288 5.60193 14.288 5.60193 14.288 8.90988C14.288 9.22988 14.0321 9.48434 13.6501 9.48434C13.6501 9.48434 13.6501 9.48434 10.4147 9.48434C10.0977 9.48434 9.84172 9.22988 9.84172 8.90988C9.84172 8.90988 9.84172 8.90988 9.84172 5.60193C9.84172 5.28193 9.58961 5.02747 9.26874 5.02747H7.30151C6.98446 5.02747 6.91952 4.8347 7.11052 4.58024C7.11052 4.58024 7.11052 4.58024 11.5568 0.123374L11.8472 0Z" fill="#BDBDBD"/>
<path fill-rule="evenodd" clip-rule="evenodd" d="M4.88752 7.00918C4.96774 7.04773 5.01739 7.15954 5.01739 7.32147V16.613C5.01739 16.775 4.96774 16.8714 4.88752 16.9022C4.81112 16.933 4.70035 16.9022 4.57047 16.8058C4.57047 16.8058 4.57047 16.8058 0.189083 12.3489C-0.0630278 12.16 -0.0630278 11.7745 0.189083 11.52C0.189083 11.52 0.189084 11.52 4.57047 7.1287C4.70035 7.00147 4.81112 6.97063 4.88752 7.00918Z" fill="#BDBDBD"/>
<path fill-rule="evenodd" clip-rule="evenodd" d="M10.4147 14.3229C10.4147 14.3229 10.4147 14.3229 13.6501 14.3229C14.0321 14.3229 14.288 14.5773 14.288 14.8973C14.288 14.8973 14.288 14.8973 14.288 18.3981C14.288 18.7797 14.5402 19.0342 14.8572 19.0342H16.5723C16.8894 19.0342 17.0154 19.2231 16.7633 19.4159C16.7633 19.4159 16.7633 19.4159 12.4469 23.8072C12.317 23.9344 12.1604 24 11.9999 24C11.8433 24 11.6829 23.9344 11.5568 23.8072C11.5568 23.8072 11.5568 23.8072 7.24039 19.4159C6.98446 19.2231 7.11052 19.0342 7.42757 19.0342C7.42757 19.0342 7.42757 19.0342 9.26874 19.0342C9.58961 19.0342 9.84172 18.7797 9.84172 18.3981C9.84172 18.3981 9.84172 18.3981 9.84172 14.8973C9.84172 14.5773 10.0977 14.3229 10.4147 14.3229Z" fill="#BDBDBD"/>
</svg>
