<svg width="16" height="16" viewBox="0 0 16 16" fill="none" xmlns="http://www.w3.org/2000/svg">
<g clip-path="url(#clip0)">
<path d="M6.75174 15.9158L12.9232 5.28944C13.063 5.04884 12.8648 4.75278 12.5891 4.79028L8.48399 5.34825L9.46484 0.198812C9.4979 0.0252178 9.27409 -0.074251 9.1674 0.0665928L3.09946 8.07628C2.92271 8.30956 3.10987 8.64128 3.40093 8.61066L7.92681 8.13425L6.44309 15.8001C6.40731 15.985 6.65715 16.0787 6.75174 15.9158Z" fill="#FFCA41"/>
<path d="M4.99702 7.50892C4.88368 7.51799 4.8084 7.39408 4.86865 7.29767L9.40549 0.0387357C9.33799 -0.0146705 9.23174 -0.018108 9.1674 0.0668295L3.09946 8.07652C2.92271 8.30983 3.10987 8.64152 3.40093 8.61089L7.92681 8.13449L6.44309 15.8004C6.42309 15.9038 6.49284 15.9765 6.57437 15.9939L9.11684 7.94871C9.23603 7.57161 8.93534 7.19383 8.54112 7.22539L4.99702 7.50892Z" fill="#FFBB0B"/>
</g>
<defs>
<clipPath id="clip0">
<rect width="16" height="16" fill="white"/>
</clipPath>
</defs>
</svg>
