<svg width="36" height="36" viewBox="0 0 36 36" fill="none" xmlns="http://www.w3.org/2000/svg">
  <circle cx="18" cy="18" r="18" fill="white"/>
  <path d="M17.9991 14.876C16.2788 14.876 14.8749 16.2799 14.8749 18.0003C14.8749 19.7206 16.2788 21.1245 17.9991 21.1245C19.7194 21.1245 21.1234 19.7206 21.1234 18.0003C21.1234 16.2799 19.7194 14.876 17.9991 14.876ZM27.3694 18.0003C27.3694 16.7065 27.3812 15.4245 27.3085 14.1331C27.2359 12.6331 26.8937 11.3018 25.7968 10.2049C24.6976 9.10573 23.3687 8.76588 21.8687 8.69323C20.5749 8.62057 19.2929 8.63229 18.0015 8.63229C16.7077 8.63229 15.4257 8.62057 14.1343 8.69323C12.6343 8.76588 11.303 9.10807 10.2062 10.2049C9.10695 11.3042 8.7671 12.6331 8.69445 14.1331C8.62179 15.4268 8.63351 16.7089 8.63351 18.0003C8.63351 19.2917 8.62179 20.576 8.69445 21.8674C8.7671 23.3674 9.10929 24.6987 10.2062 25.7956C11.3054 26.8948 12.6343 27.2346 14.1343 27.3073C15.428 27.3799 16.7101 27.3682 18.0015 27.3682C19.2952 27.3682 20.5773 27.3799 21.8687 27.3073C23.3687 27.2346 24.6999 26.8924 25.7968 25.7956C26.896 24.6964 27.2359 23.3674 27.3085 21.8674C27.3835 20.576 27.3694 19.294 27.3694 18.0003ZM17.9991 22.8073C15.339 22.8073 13.1921 20.6604 13.1921 18.0003C13.1921 15.3401 15.339 13.1932 17.9991 13.1932C20.6593 13.1932 22.8062 15.3401 22.8062 18.0003C22.8062 20.6604 20.6593 22.8073 17.9991 22.8073ZM23.003 14.119C22.3819 14.119 21.8804 13.6174 21.8804 12.9964C21.8804 12.3753 22.3819 11.8737 23.003 11.8737C23.6241 11.8737 24.1257 12.3753 24.1257 12.9964C24.1259 13.1438 24.097 13.2899 24.0406 13.4262C23.9843 13.5625 23.9016 13.6863 23.7973 13.7906C23.693 13.8949 23.5692 13.9776 23.4329 14.0339C23.2966 14.0903 23.1505 14.1192 23.003 14.119Z" fill="#23BE20"/>
</svg>
