<svg width="36" height="36" viewBox="0 0 36 36" fill="none" xmlns="http://www.w3.org/2000/svg">
  <circle cx="18" cy="18" r="18" fill="white"/>
  <path d="M28.0617 12.9398C27.9422 12.4946 27.7078 12.0886 27.382 11.7624C27.0563 11.4363 26.6505 11.2014 26.2055 11.0813C24.5672 10.6406 18 10.6406 18 10.6406C18 10.6406 11.4328 10.6406 9.79453 11.0789C9.34927 11.1986 8.94334 11.4334 8.61751 11.7596C8.29169 12.0859 8.05744 12.4921 7.93828 12.9375C7.5 14.5781 7.5 18 7.5 18C7.5 18 7.5 21.4219 7.93828 23.0602C8.17969 23.9648 8.89219 24.6773 9.79453 24.9188C11.4328 25.3594 18 25.3594 18 25.3594C18 25.3594 24.5672 25.3594 26.2055 24.9188C27.1102 24.6773 27.8203 23.9648 28.0617 23.0602C28.5 21.4219 28.5 18 28.5 18C28.5 18 28.5 14.5781 28.0617 12.9398ZM15.9141 21.1406V14.8594L21.3516 17.9766L15.9141 21.1406Z" fill="#23BE20"/>
</svg>
