<svg width="20" height="20" viewBox="0 0 20 20" fill="#23BE20" xmlns="http://www.w3.org/2000/svg">
  <path d="M7.24091 14.8182C7.13284 15.5766 6.75474 16.2706 6.17607 16.7727C5.5974 17.2747 4.85702 17.5511 4.09091 17.5511C3.3248 17.5511 2.58442 17.2747 2.00575 16.7727C1.42708 16.2706 1.04898 15.5766 0.940909 14.8182H0V3.90909C0 3.66798 0.0957789 3.43675 0.266267 3.26627C0.436754 3.09578 0.667985 3 0.909091 3H13.6364C13.8775 3 14.1087 3.09578 14.2792 3.26627C14.4497 3.43675 14.5455 3.66798 14.5455 3.90909V5.72727H17.2727L20 9.41455V14.8182H18.15C18.0419 15.5766 17.6638 16.2706 17.0852 16.7727C16.5065 17.2747 15.7661 17.5511 15 17.5511C14.2339 17.5511 13.4935 17.2747 12.9148 16.7727C12.3362 16.2706 11.9581 15.5766 11.85 14.8182H7.24091ZM12.7273 4.81818H1.81818V12.1364C2.17687 11.7702 2.61873 11.4961 3.10614 11.3374C3.59355 11.1787 4.11209 11.1401 4.61762 11.2249C5.12315 11.3097 5.6007 11.5154 6.00964 11.8245C6.41859 12.1335 6.7468 12.5368 6.96636 13H12.1245C12.2773 12.6791 12.4818 12.3873 12.7273 12.1364V4.81818ZM14.5455 10.2727H18.1818V10.0136L16.3564 7.54545H14.5455V10.2727ZM15 15.7273C15.3618 15.7273 15.7087 15.5836 15.9646 15.3277C16.2204 15.0719 16.3641 14.725 16.3641 14.3632C16.3641 14.0014 16.2204 13.6544 15.9646 13.3986C15.7087 13.1428 15.3618 12.9991 15 12.9991C14.6382 12.9991 14.2913 13.1428 14.0354 13.3986C13.7796 13.6544 13.6359 14.0014 13.6359 14.3632C13.6359 14.725 13.7796 15.0719 14.0354 15.3277C14.2913 15.5836 14.6382 15.7273 15 15.7273ZM5.45455 14.3636C5.45455 14.1846 5.41927 14.0072 5.35075 13.8418C5.28222 13.6763 5.18177 13.526 5.05515 13.3994C4.92852 13.2728 4.77819 13.1723 4.61275 13.1038C4.44731 13.0353 4.26998 13 4.09091 13C3.91183 13 3.73451 13.0353 3.56907 13.1038C3.40362 13.1723 3.2533 13.2728 3.12667 13.3994C3.00005 13.526 2.8996 13.6763 2.83107 13.8418C2.76254 14.0072 2.72727 14.1846 2.72727 14.3636C2.72727 14.7253 2.87094 15.0721 3.12667 15.3279C3.3824 15.5836 3.72925 15.7273 4.09091 15.7273C4.45257 15.7273 4.79941 15.5836 5.05515 15.3279C5.31088 15.0721 5.45455 14.7253 5.45455 14.3636Z" />
</svg>
