<svg width="20" height="20" viewBox="0 0 20 20" fill="#EE2C39" xmlns="http://www.w3.org/2000/svg">
  <path fill-rule="evenodd" clip-rule="evenodd" d="M16.0254 5.92128C16.0859 5.902 16.1655 5.94056 16.2451 6.04658C16.2451 6.04658 16.2451 6.04658 19.8421 9.6C20.0522 9.81205 20.0522 10.1333 19.8421 10.2908C19.8421 10.2908 19.8421 10.2908 16.2451 13.8988C16.1655 14.0048 16.0859 14.0305 16.0254 13.9984C15.965 13.9663 15.9268 13.8731 15.9268 13.7382V6.15261C15.9268 6.02088 15.965 5.94056 16.0254 5.92128Z" />
  <path fill-rule="evenodd" clip-rule="evenodd" d="M9.87238 0H10.127L10.3722 0.102812C10.3722 0.102812 10.3722 0.102811 14.0742 3.81687C14.2334 4.02892 14.1793 4.18956 13.9151 4.18956C13.9151 4.18956 13.9151 4.18956 12.3808 4.18956C12.1166 4.18956 11.9065 4.40161 11.9065 4.66828C11.9065 4.66828 11.9065 4.66828 11.9065 7.4249C11.9065 7.69157 11.6932 7.90362 11.3749 7.90362C11.3749 7.90362 11.3749 7.90362 8.67868 7.90362C8.41447 7.90362 8.20119 7.69157 8.20119 7.4249C8.20119 7.4249 8.20119 7.4249 8.20119 4.66828C8.20119 4.40161 7.9911 4.18956 7.72371 4.18956H6.08435C5.82014 4.18956 5.76603 4.02892 5.92519 3.81687C5.92519 3.81687 5.92519 3.81687 9.63046 0.102812L9.87238 0Z" />
  <path fill-rule="evenodd" clip-rule="evenodd" d="M4.07294 5.84094C4.13978 5.87307 4.18116 5.96624 4.18116 6.10118V13.8442C4.18116 13.9791 4.13978 14.0594 4.07294 14.0851C4.00927 14.1108 3.91696 14.0851 3.80873 14.0048C3.80873 14.0048 3.80873 14.0048 0.15757 10.2907C-0.0525232 10.1333 -0.0525232 9.81203 0.15757 9.59998C0.15757 9.59998 0.15757 9.59998 3.80873 5.94054C3.91696 5.83452 4.00927 5.80881 4.07294 5.84094Z" />
  <path fill-rule="evenodd" clip-rule="evenodd" d="M8.67924 11.9358C8.67924 11.9358 8.67924 11.9358 11.3754 11.9358C11.6938 11.9358 11.907 12.1478 11.907 12.4145C11.907 12.4145 11.907 12.4145 11.907 15.3318C11.907 15.6498 12.1171 15.8619 12.3813 15.8619H13.8106C14.0748 15.8619 14.1799 16.0193 13.9698 16.18C13.9698 16.18 13.9698 16.18 10.3727 19.8394C10.2645 19.9454 10.134 20.0001 10.0003 20.0001C9.86977 20.0001 9.73608 19.9454 9.63103 19.8394C9.63103 19.8394 9.63103 19.8394 6.03399 16.18C5.82071 16.0193 5.92576 15.8619 6.18996 15.8619C6.18996 15.8619 6.18996 15.8619 7.72428 15.8619C7.99167 15.8619 8.20176 15.6498 8.20176 15.3318C8.20176 15.3318 8.20176 15.3318 8.20176 12.4145C8.20176 12.1478 8.41504 11.9358 8.67924 11.9358Z" />
</svg>
