<svg width="24" height="24" viewBox="0 0 24 24" fill="none" xmlns="http://www.w3.org/2000/svg">
<path d="M20.8737 7.06953C19.3172 4.29906 14.0678 4.29349 9.1488 7.05709C4.22985 9.82069 1.50405 14.3069 3.06057 17.0774C4.6171 19.8479 9.86651 19.8534 14.7855 17.0898C19.7044 14.3262 22.4302 9.84 20.8737 7.06953Z" fill="#C338D9"/>
<path d="M18.0289 8.66852C17.1805 7.15824 13.7798 7.45792 10.4333 9.33786C7.08679 11.2178 5.06169 13.9661 5.9101 15.4764C6.75851 16.9867 10.1592 16.687 13.5057 14.807C16.8522 12.9271 18.8773 10.1788 18.0289 8.66852Z" fill="#F2FFF2"/>
<path d="M20.905 22.0016L21.1652 21.2013L21.7431 20.9579C21.9143 20.8857 22.0257 20.718 22.0257 20.5322C22.0257 20.3464 21.9143 20.1787 21.7431 20.1069L21.1652 19.8631L20.905 19.0628C20.8431 18.8727 20.6659 18.7437 20.466 18.7437C20.266 18.7437 20.0888 18.8723 20.0269 19.0628L19.7667 19.8631L19.1888 20.1069C19.0176 20.1787 18.9062 20.3469 18.9062 20.5322C18.9062 20.718 19.0176 20.8857 19.1888 20.9579L19.7667 21.2013L20.0269 22.0016C20.0884 22.1921 20.266 22.3207 20.466 22.3207C20.6659 22.3207 20.8431 22.1921 20.905 22.0016Z" fill="#1A1919"/>
<path d="M3.97338 4.93728L4.23355 4.13699L4.81151 3.89317C4.98266 3.82135 5.09403 3.65321 5.09403 3.46787C5.09403 3.28253 4.98266 3.11439 4.81151 3.04257L4.23355 2.79875L3.97338 1.99846C3.91103 1.80796 3.73385 1.67938 3.53432 1.67938C3.33436 1.67938 3.15676 1.80796 3.09526 1.99846L2.8351 2.79875L2.25714 3.04257C2.08599 3.11439 1.97461 3.28253 1.97461 3.46787C1.97461 3.65321 2.08599 3.82135 2.25714 3.89317L2.8351 4.13699L3.09526 4.93728C3.15719 5.12735 3.33436 5.25636 3.53432 5.25636C3.73385 5.25593 3.91146 5.12735 3.97338 4.93728Z" fill="#1A1919"/>
<path d="M21.6237 6.53868C20.7121 4.91575 18.8118 4.02044 16.2733 4.01871C16.2707 4.01871 16.2677 4.01871 16.2651 4.01871C13.9073 4.01871 11.2312 4.7932 8.72888 6.20068C3.3144 9.24442 0.496424 14.1618 2.31329 17.3947C3.22495 19.0177 5.12482 19.913 7.66371 19.9147C7.66672 19.9147 7.6693 19.9147 7.67188 19.9147C10.0293 19.9147 12.7058 19.1398 15.2081 17.7327C20.623 14.689 23.441 9.77206 21.6237 6.53868ZM14.3657 16.2337C12.1158 17.4984 9.73945 18.195 7.67188 18.195C7.66973 18.195 7.66715 18.195 7.66457 18.195C5.77459 18.1937 4.40667 17.6102 3.8128 16.5523C2.51326 14.2396 5.15019 10.1858 9.57174 7.69976C11.8212 6.43504 14.198 5.73883 16.2651 5.73883C16.2673 5.73883 16.2699 5.73883 16.2724 5.73883C18.1628 5.74012 19.5308 6.32324 20.1246 7.38111C21.4242 9.69423 18.7868 13.7481 14.3657 16.2337Z" fill="#1A1919"/>
<path d="M15.0896 6.76882C13.5363 6.906 11.7328 7.51492 10.011 8.48291C6.13124 10.6644 4.04604 13.8067 5.1611 15.793C5.67455 16.7072 6.74318 17.1944 8.20527 17.1944C8.41125 17.1944 8.62584 17.1845 8.8473 17.1652C10.4001 17.028 12.2041 16.4191 13.9255 15.4511C17.8057 13.27 19.8904 10.1273 18.7749 8.14104C18.1897 7.09822 16.8811 6.61143 15.0896 6.76882ZM13.0831 13.9516C11.5694 14.8026 10.0114 15.3354 8.69593 15.452C7.66645 15.5418 6.88551 15.3509 6.66104 14.951C6.2065 14.1417 7.61398 11.804 10.8538 9.98242C12.3675 9.1314 13.9255 8.59859 15.241 8.48248C15.4104 8.46743 15.5734 8.46012 15.7278 8.46012C16.513 8.46012 17.0879 8.6489 17.2754 8.98347C17.73 9.79278 16.3229 12.1304 13.0831 13.9516Z" fill="#1A1919"/>
<path d="M21.7505 16.6026C21.3372 16.6026 21.0005 16.9389 21.0005 17.3517C21.0005 17.7654 21.3368 18.1017 21.7505 18.1017C22.1637 18.1017 22.5 17.7654 22.5 17.3517C22.5 16.9389 22.1637 16.6026 21.7505 16.6026Z" fill="#1A1919"/>
<path d="M2.24954 7.39749C2.66279 7.39749 2.99951 7.06121 2.99951 6.64838C2.99951 6.23469 2.66323 5.89798 2.24954 5.89798C1.83628 5.89798 1.5 6.23469 1.5 6.64838C1.5 7.06121 1.83628 7.39749 2.24954 7.39749Z" fill="#1A1919"/>
<path d="M6.27295 2.88005C6.27295 3.2933 6.60923 3.62959 7.02249 3.62959C7.43575 3.62959 7.77246 3.2933 7.77246 2.88005C7.77246 2.46636 7.43618 2.12965 7.02249 2.12965C6.60923 2.12965 6.27295 2.46636 6.27295 2.88005Z" fill="#1A1919"/>
<path d="M17.727 21.1201C17.727 20.7072 17.3908 20.371 16.9775 20.371C16.5643 20.371 16.2275 20.7072 16.2275 21.1201C16.2275 21.5338 16.5638 21.8705 16.9775 21.8705C17.3908 21.8705 17.727 21.5338 17.727 21.1201Z" fill="#1A1919"/>
</svg>
