<svg width="100" height="43" viewBox="0 0 100 43" fill="none" xmlns="http://www.w3.org/2000/svg">
<g clip-path="url(#clip0)">
<path fill-rule="evenodd" clip-rule="evenodd" d="M97.042 15.9246C97.042 12.7389 94.7423 10.3366 91.693 10.3366C88.6428 10.3366 86.3432 12.7389 86.3432 15.9246C86.3432 19.1095 88.6428 21.511 91.693 21.511C94.7423 21.511 97.042 19.1095 97.042 15.9246ZM100.209 15.9072C100.209 20.6061 96.4039 24.4136 91.7073 24.4136C87.0129 24.4136 83.207 20.6061 83.207 15.9072C83.207 11.2091 87.0129 7.40002 91.7073 7.40002C96.4039 7.40002 100.209 11.2091 100.209 15.9072Z" fill="#23BE20"/>
<path fill-rule="evenodd" clip-rule="evenodd" d="M78.7046 15.9246C78.7046 12.7389 76.4049 10.3366 73.3548 10.3366C70.3061 10.3366 68.0057 12.7389 68.0057 15.9246C68.0057 19.1095 70.3061 21.511 73.3548 21.511C76.4049 21.511 78.7046 19.1095 78.7046 15.9246ZM81.8731 15.9072C81.8731 20.6061 78.065 24.4136 73.3706 24.4136C68.6762 24.4136 64.8711 20.6061 64.8711 15.9072C64.8711 11.2091 68.6762 7.40002 73.3706 7.40002C78.065 7.40002 81.8731 11.2091 81.8731 15.9072Z" fill="#23BE20"/>
<path fill-rule="evenodd" clip-rule="evenodd" d="M55.0965 21.511C52.0479 21.511 49.7459 19.1095 49.7459 15.9246C49.7459 12.7389 52.0479 10.3366 55.0965 10.3366C58.1459 10.3366 60.4433 12.7389 60.4433 15.9246C60.4433 19.1095 58.1459 21.511 55.0965 21.511ZM55.0965 39.5208C52.0479 39.5208 49.7459 37.1185 49.7459 33.9344C49.7459 30.7472 52.0479 28.3464 55.0965 28.3464C58.1459 28.3464 60.4433 30.7472 60.4433 33.9344C60.4433 37.1185 58.1459 39.5208 55.0965 39.5208ZM64.5079 7.40002H55.1689L55.1712 7.40229C55.1508 7.40229 55.1327 7.40002 55.1146 7.40002C50.4187 7.40002 46.6113 11.2091 46.6113 15.9072C46.6113 18.8272 48.0828 21.4023 50.3237 22.9351L53.7623 25.5178C49.7097 26.1653 46.6113 29.6785 46.6113 33.9163C46.6113 38.6136 50.4187 42.4227 55.1146 42.4227C59.8044 42.4227 63.6103 38.6136 63.6103 33.9163C63.6103 31.1766 62.3145 28.7412 60.3045 27.1857L60.306 27.1849L60.257 27.1487C60.2117 27.1147 60.1703 27.0815 60.125 27.0491L56.4534 24.3072C60.5082 23.6642 63.6103 20.1479 63.6103 15.9072C63.6103 13.8717 62.8953 12.0046 61.7051 10.5419H63.3976L64.5079 7.40002Z" fill="#23BE20"/>
<path fill-rule="evenodd" clip-rule="evenodd" d="M31.8125 9.77435C30.3206 11.286 29.5 13.3079 29.5 15.4679V24.0166H32.6904V15.4385C32.6904 12.5887 34.7435 10.4393 37.4647 10.4393C40.1875 10.4393 42.2391 12.5887 42.2391 15.4385L42.2406 24.0166H45.434L45.4318 15.4679C45.4318 13.3094 44.6096 11.286 43.117 9.77435C41.6213 8.25737 39.6136 7.42114 37.4647 7.42114C35.3152 7.42114 33.3081 8.25737 31.8125 9.77435Z" fill="#23BE20"/>
<path d="M19.4375 17.805V21.1838L13.8125 11.0625L19.4375 16.305V17.805Z" fill="#23BE20"/>
<path d="M26.1875 8.4375L19.4375 23.0625V21.1838V17.805L26.1875 8.4375Z" fill="#23BE20"/>
<path d="M19.4375 23.8125C19.2301 23.8125 19.0625 23.6448 19.0625 23.4375V11.8094C19.0625 11.6021 19.2301 11.4344 19.4375 11.4344C19.6449 11.4344 19.8125 11.6021 19.8125 11.8094V23.4375C19.8125 23.6448 19.6449 23.8125 19.4375 23.8125Z" fill="#3FE33C"/>
<path d="M19.4368 0.1875C20.0631 0.1875 20.6593 0.555 21.1918 1.13587C20.6256 1.29375 20.0218 1.57875 19.4293 1.9425C18.8406 1.58287 18.2444 1.30163 17.6777 1.14375V1.14C18.2106 0.55875 18.8069 0.1875 19.4368 0.1875Z" fill="#C0000D"/>
<path d="M17.678 1.14367C18.2446 1.30155 18.8409 1.5828 19.4296 1.94242C17.8767 2.89117 16.3884 4.36905 15.7621 5.45617C15.098 6.60742 15.0346 7.94242 15.473 9.09367C14.4796 6.77617 13.9392 2.31367 15.7842 1.24492C16.3055 0.944924 16.9655 0.941174 17.678 1.14367Z" fill="#D4000E"/>
<path d="M19.4368 11.8125C18.713 11.8162 17.9818 11.6325 17.3105 11.2462C16.4368 10.74 15.8105 9.97124 15.473 9.09374C15.0343 7.94249 15.098 6.60749 15.7621 5.45624C16.3884 4.36912 17.8771 2.89124 19.4296 1.94249C20.0218 1.57874 20.6255 1.29412 21.1918 1.13624C21.908 0.933743 22.568 0.937493 23.0893 1.23749C25.1139 2.40749 24.2668 7.66874 23.0968 9.69374C22.3168 11.0475 20.8993 11.8087 19.4368 11.8125Z" fill="#EE2C39"/>
<path fill-rule="evenodd" clip-rule="evenodd" d="M8.45274 7.40002C6.50228 7.40002 4.66194 8.05587 3.18514 9.26191V8.32229H0V24.037H3.17986V24.0302H3.18514V15.5676C3.29149 12.5449 5.51951 10.2929 8.45274 10.2929C8.9973 10.2929 9.51847 10.3706 10.0057 10.5178C10.0148 10.52 10.0336 10.5261 10.0336 10.5261L11.4463 7.94719C10.5058 7.5887 9.49509 7.40002 8.45274 7.40002Z" fill="#23BE20"/>
</g>
<defs>
<clipPath id="clip0">
<rect width="100" height="43" fill="white"/>
</clipPath>
</defs>
</svg>
