<svg width="89" height="40" viewBox="0 0 89 40" fill="none" xmlns="http://www.w3.org/2000/svg">
<path fill-rule="evenodd" clip-rule="evenodd" d="M85.3101 13.1736C85.3101 9.98792 83.0104 7.58565 79.961 7.58565C76.9109 7.58565 74.6112 9.98792 74.6112 13.1736C74.6112 16.3585 76.9109 18.76 79.961 18.76C83.0104 18.76 85.3101 16.3585 85.3101 13.1736ZM88.4771 13.1562C88.4771 17.8551 84.672 21.6626 79.9754 21.6626C75.281 21.6626 71.4751 17.8551 71.4751 13.1562C71.4751 8.4581 75.281 4.64905 79.9754 4.64905C84.672 4.64905 88.4771 8.4581 88.4771 13.1562Z" fill="#23BE20"/>
<path fill-rule="evenodd" clip-rule="evenodd" d="M66.9717 13.1736C66.9717 9.98792 64.672 7.58565 61.6218 7.58565C58.5732 7.58565 56.2728 9.98792 56.2728 13.1736C56.2728 16.3585 58.5732 18.76 61.6218 18.76C64.672 18.76 66.9717 16.3585 66.9717 13.1736ZM70.1402 13.1562C70.1402 17.8551 66.3321 21.6626 61.6377 21.6626C56.9433 21.6626 53.1382 17.8551 53.1382 13.1562C53.1382 8.4581 56.9433 4.64905 61.6377 4.64905C66.3321 4.64905 70.1402 8.4581 70.1402 13.1562Z" fill="#23BE20"/>
<path fill-rule="evenodd" clip-rule="evenodd" d="M43.3641 18.76C40.3154 18.76 38.0135 16.3585 38.0135 13.1736C38.0135 9.98792 40.3154 7.58565 43.3641 7.58565C46.4135 7.58565 48.7109 9.98792 48.7109 13.1736C48.7109 16.3585 46.4135 18.76 43.3641 18.76ZM43.3641 36.7698C40.3154 36.7698 38.0135 34.3675 38.0135 31.1834C38.0135 27.9962 40.3154 25.5955 43.3641 25.5955C46.4135 25.5955 48.7109 27.9962 48.7109 31.1834C48.7109 34.3675 46.4135 36.7698 43.3641 36.7698ZM52.7754 4.64905H43.4365L43.4387 4.65131C43.4184 4.65131 43.4003 4.64905 43.3822 4.64905C38.6863 4.64905 34.8789 8.4581 34.8789 13.1562C34.8789 16.0762 36.3504 18.6513 38.5913 20.1841L42.0298 22.7668C37.9773 23.4143 34.8789 26.9275 34.8789 31.1653C34.8789 35.8626 38.6863 39.6717 43.3822 39.6717C48.072 39.6717 51.8779 35.8626 51.8779 31.1653C51.8779 28.4257 50.5821 25.9902 48.5721 24.4347L48.5736 24.434L48.5246 24.3977C48.4793 24.3638 48.4378 24.3306 48.3926 24.2981L44.7209 21.5562C48.7757 20.9132 51.8779 17.397 51.8779 13.1562C51.8779 11.1207 51.1629 9.25358 49.9727 7.79093H51.6652L52.7754 4.64905Z" fill="#23BE20"/>
<path fill-rule="evenodd" clip-rule="evenodd" d="M20.0801 7.02337C18.5882 8.53507 17.7676 10.557 17.7676 12.717V21.2656H20.958V12.6875C20.958 9.83771 23.011 7.68828 25.7323 7.68828C28.4551 7.68828 30.5066 9.83771 30.5066 12.6875L30.5081 21.2656H33.7016L33.6993 12.717C33.6993 10.5585 32.8772 8.53507 31.3846 7.02337C29.8889 5.50639 27.8811 4.67017 25.7323 4.67017C23.5827 4.67017 21.5757 5.50639 20.0801 7.02337Z" fill="#23BE20"/>
<path fill-rule="evenodd" clip-rule="evenodd" d="M12.8955 21.2626H16.0761V5.53583H12.8955V21.2626Z" fill="#23BE20"/>
<path fill-rule="evenodd" clip-rule="evenodd" d="M12.7432 2.17056C12.7432 3.13811 13.5049 3.8966 14.4764 3.8966C15.4479 3.8966 16.2096 3.13811 16.2096 2.17056C16.2096 1.19396 15.4479 0.427917 14.4764 0.427917C13.5049 0.427917 12.7432 1.19396 12.7432 2.17056Z" fill="#23BE20"/>
<path fill-rule="evenodd" clip-rule="evenodd" d="M8.59531 4.61131C6.64486 4.61131 4.80452 5.26716 3.32772 6.4732V5.53358H0.142578V21.2483H3.32244V21.2415H3.32772V12.7789C3.43407 9.75622 5.66209 7.50414 8.59531 7.50414C9.13987 7.50414 9.66105 7.58188 10.1483 7.72905C10.1573 7.73131 10.1762 7.73735 10.1762 7.73735L11.5889 5.15848C10.6483 4.79999 9.63767 4.61131 8.59531 4.61131Z" fill="#23BE20"/>
</svg>
